<svg width="15" height="16" viewBox="0 0 15 16" fill="none" xmlns="http://www.w3.org/2000/svg">
<path d="M3.32432 9.66893L2.80219 11.7481L0.893818 11.7911C0.323496 10.6628 0 9.3718 0 7.99993C0 6.67333 0.302461 5.42233 0.838594 4.3208H0.839004L2.53799 4.65305L3.28225 6.45443C3.12647 6.93883 3.04157 7.45883 3.04157 7.99993C3.04163 8.58718 3.14136 9.14983 3.32432 9.66893Z" fill="#FBBB00"/>
<path d="M14.869 6.50549C14.9551 6.98943 15 7.48921 15 7.99999C15 8.57274 14.9436 9.13143 14.836 9.67034C14.4709 11.5042 13.5169 13.1055 12.1954 14.2387L12.195 14.2382L10.055 14.1218L9.75214 12.1051C10.6291 11.5565 11.3144 10.698 11.6754 9.67034H7.66492V6.50549H11.7339H14.869Z" fill="#518EF8"/>
<path d="M12.1949 14.2383L12.1953 14.2387C10.91 15.3407 9.2773 16 7.49998 16C4.6438 16 2.16057 14.2972 0.893799 11.7913L3.3243 9.66907C3.95767 11.4721 5.5883 12.7557 7.49998 12.7557C8.32167 12.7557 9.09147 12.5187 9.75203 12.1051L12.1949 14.2383Z" fill="#28B446"/>
<path d="M12.2873 1.84175L9.85758 3.9635C9.17393 3.50769 8.36581 3.24438 7.50003 3.24438C5.54508 3.24438 3.88394 4.58678 3.2823 6.4545L0.839033 4.32088H0.838623C2.08685 1.75384 4.6014 0 7.50003 0C9.3198 0 10.9883 0.691438 12.2873 1.84175Z" fill="#F14336"/>
</svg>
